<?xml version="1.0" encoding="UTF-8"?>
<!DOCTYPE svg PUBLIC "-//W3C//DTD SVG 1.1//EN" "http://www.w3.org/Graphics/SVG/1.1/DTD/svg11.dtd">
<!-- Creator: CorelDRAW 2021 (64 Bit) -->
<svg xmlns="http://www.w3.org/2000/svg" xml:space="preserve" width="512px" height="512px" version="1.1" style="shape-rendering:geometricPrecision; text-rendering:geometricPrecision; image-rendering:optimizeQuality; fill-rule:evenodd; clip-rule:evenodd"
viewBox="0 0 65.14 65.15"
 xmlns:xlink="http://www.w3.org/1999/xlink"
 xmlns:xodm="http://www.corel.com/coreldraw/odm/2003">
 <defs>
  <style type="text/css">
   <![CDATA[
    .fil1 {fill:#0274A7}
    .fil0 {fill:white}
   ]]>
  </style>
 </defs>
 <g id="Camada_x0020_1">
  <metadata id="CorelCorpID_0Corel-Layer"/>
  <g id="_1708404697376">
   <path class="fil0" d="M31.77 0l1.6 0c17.47,0 31.77,14.48 31.77,32.18l0 0c0,36.79 0.77,32.84 -31.77,32.84l-1.6 0c-17.47,0 -31.77,-15.14 -31.77,-32.84l0 0c0,-17.7 14.3,-32.18 31.77,-32.18z"/>
   <path class="fil1" d="M51.32 10.53c-2.34,-1.53 -9.57,-1.94 -13.04,-1.95 -14.27,-0.06 -20.45,5.73 -23.11,21.41 -1.6,9.42 -3.03,18.24 3.57,23.35 3.32,2.57 6.47,3.34 11.7,3.21 2.86,-0.07 10.93,-0.22 12.69,-1.8 1.46,-1.24 4.48,-22.63 4.17,-23 -1.39,-0.81 -7.7,-0.69 -9.53,-0.16 -1.42,2.07 -2.23,12.05 -3.2,15.54 -6.01,0.38 -10.07,0.67 -10.21,-5.98 -0.08,-3.43 1.4,-11.12 2.18,-14.45 3.23,-13.8 13.74,-6.88 23.51,-8.4l1.27 -7.77z"/>
  </g>
 </g>
</svg>
