<?xml version="1.0" encoding="UTF-8"?>
<!DOCTYPE svg PUBLIC "-//W3C//DTD SVG 1.1//EN" "http://www.w3.org/Graphics/SVG/1.1/DTD/svg11.dtd">
<!-- Creator: CorelDRAW 2021 (64 Bit) -->
<svg xmlns="http://www.w3.org/2000/svg" xml:space="preserve" width="128px" height="128px" version="1.1" style="shape-rendering:geometricPrecision; text-rendering:geometricPrecision; image-rendering:optimizeQuality; fill-rule:evenodd; clip-rule:evenodd"
viewBox="0 0 2.54 2.54"
 xmlns:xlink="http://www.w3.org/1999/xlink"
 xmlns:xodm="http://www.corel.com/coreldraw/odm/2003">
 <defs>
  <style type="text/css">
   <![CDATA[
    .fil1 {fill:#0274A7}
    .fil0 {fill:white}
   ]]>
  </style>
 </defs>
 <g id="Camada_x0020_1">
  <metadata id="CorelCorpID_0Corel-Layer"/>
  <g id="_1708461446960">
   <path class="fil0" d="M1.24 0l0.06 0c0.68,0 1.24,0.56 1.24,1.25l0 0c0,1.44 0.03,1.28 -1.24,1.28l-0.06 0c-0.68,0 -1.24,-0.59 -1.24,-1.28l0 0c0,-0.69 0.56,-1.25 1.24,-1.25z"/>
   <path class="fil1" d="M2 0.41c-0.09,-0.06 -0.37,-0.08 -0.51,-0.08 -0.55,0 -0.8,0.23 -0.9,0.84 -0.06,0.37 -0.12,0.71 0.14,0.91 0.13,0.1 0.25,0.13 0.46,0.12 0.11,0 0.42,-0.01 0.49,-0.07 0.06,-0.05 0.17,-0.88 0.16,-0.89 -0.05,-0.03 -0.3,-0.03 -0.37,-0.01 -0.05,0.08 -0.09,0.47 -0.12,0.61 -0.24,0.01 -0.4,0.02 -0.4,-0.24 0,-0.13 0.05,-0.43 0.08,-0.56 0.13,-0.54 0.54,-0.27 0.92,-0.33l0.05 -0.3z"/>
  </g>
 </g>
</svg>
