<?xml version="1.0" encoding="UTF-8"?>
<!DOCTYPE svg PUBLIC "-//W3C//DTD SVG 1.1//EN" "http://www.w3.org/Graphics/SVG/1.1/DTD/svg11.dtd">
<!-- Creator: CorelDRAW 2021 (64 Bit) -->
<svg xmlns="http://www.w3.org/2000/svg" xml:space="preserve" width="192px" height="192px" version="1.1" style="shape-rendering:geometricPrecision; text-rendering:geometricPrecision; image-rendering:optimizeQuality; fill-rule:evenodd; clip-rule:evenodd"
viewBox="0 0 7.16 7.16"
 xmlns:xlink="http://www.w3.org/1999/xlink"
 xmlns:xodm="http://www.corel.com/coreldraw/odm/2003">
 <defs>
  <style type="text/css">
   <![CDATA[
    .fil1 {fill:#0274A7}
    .fil0 {fill:white}
   ]]>
  </style>
 </defs>
 <g id="Camada_x0020_1">
  <metadata id="CorelCorpID_0Corel-Layer"/>
  <g id="_1708445823616">
   <path class="fil0" d="M3.49 0l0.18 0c1.92,0 3.49,1.59 3.49,3.54l0 0c0,4.04 0.08,3.61 -3.49,3.61l-0.18 0c-1.92,0 -3.49,-1.67 -3.49,-3.61l0 0c0,-1.95 1.57,-3.54 3.49,-3.54z"/>
   <path class="fil1" d="M5.64 1.16c-0.26,-0.17 -1.05,-0.22 -1.43,-0.22 -1.57,0 -2.25,0.63 -2.54,2.36 -0.18,1.03 -0.34,2 0.39,2.56 0.36,0.28 0.71,0.37 1.29,0.35 0.31,0 1.2,-0.02 1.39,-0.19 0.16,-0.14 0.49,-2.49 0.46,-2.53 -0.15,-0.09 -0.85,-0.08 -1.05,-0.02 -0.16,0.23 -0.24,1.33 -0.35,1.71 -0.66,0.04 -1.11,0.07 -1.12,-0.66 -0.01,-0.38 0.15,-1.22 0.24,-1.59 0.35,-1.51 1.51,-0.75 2.58,-0.92l0.14 -0.85z"/>
  </g>
 </g>
</svg>
