<?xml version="1.0" encoding="UTF-8"?>
<!DOCTYPE svg PUBLIC "-//W3C//DTD SVG 1.1//EN" "http://www.w3.org/Graphics/SVG/1.1/DTD/svg11.dtd">
<!-- Creator: CorelDRAW 2021 (64 Bit) -->
<svg xmlns="http://www.w3.org/2000/svg" xml:space="preserve" width="152px" height="152px" version="1.1" style="shape-rendering:geometricPrecision; text-rendering:geometricPrecision; image-rendering:optimizeQuality; fill-rule:evenodd; clip-rule:evenodd"
viewBox="0 0 4.15 4.15"
 xmlns:xlink="http://www.w3.org/1999/xlink"
 xmlns:xodm="http://www.corel.com/coreldraw/odm/2003">
 <defs>
  <style type="text/css">
   <![CDATA[
    .fil1 {fill:#0274A7}
    .fil0 {fill:white}
   ]]>
  </style>
 </defs>
 <g id="Camada_x0020_1">
  <metadata id="CorelCorpID_0Corel-Layer"/>
  <g id="_1708412324544">
   <path class="fil0" d="M2.02 0l0.11 0c1.11,0 2.02,0.92 2.02,2.05l0 0c0,2.34 0.05,2.09 -2.02,2.09l-0.11 0c-1.11,0 -2.02,-0.96 -2.02,-2.09l0 0c0,-1.13 0.91,-2.05 2.02,-2.05z"/>
   <path class="fil1" d="M3.27 0.67c-0.15,-0.1 -0.61,-0.12 -0.83,-0.12 -0.91,-0.01 -1.3,0.36 -1.47,1.36 -0.11,0.6 -0.2,1.16 0.22,1.49 0.22,0.16 0.42,0.21 0.75,0.2 0.18,0 0.7,-0.01 0.81,-0.11 0.09,-0.08 0.28,-1.44 0.26,-1.47 -0.08,-0.05 -0.49,-0.04 -0.6,-0.01 -0.09,0.13 -0.15,0.77 -0.21,0.99 -0.38,0.03 -0.64,0.05 -0.65,-0.38 0,-0.22 0.09,-0.71 0.14,-0.92 0.21,-0.88 0.88,-0.44 1.5,-0.53l0.08 -0.5z"/>
  </g>
 </g>
</svg>
