<?xml version="1.0" encoding="UTF-8"?>
<!DOCTYPE svg PUBLIC "-//W3C//DTD SVG 1.1//EN" "http://www.w3.org/Graphics/SVG/1.1/DTD/svg11.dtd">
<!-- Creator: CorelDRAW 2021 (64 Bit) -->
<svg xmlns="http://www.w3.org/2000/svg" xml:space="preserve" width="72px" height="72px" version="1.1" style="shape-rendering:geometricPrecision; text-rendering:geometricPrecision; image-rendering:optimizeQuality; fill-rule:evenodd; clip-rule:evenodd"
viewBox="0 0 0.71 0.71"
 xmlns:xlink="http://www.w3.org/1999/xlink"
 xmlns:xodm="http://www.corel.com/coreldraw/odm/2003">
 <defs>
  <style type="text/css">
   <![CDATA[
    .fil1 {fill:#0274A7}
    .fil0 {fill:white}
   ]]>
  </style>
 </defs>
 <g id="Camada_x0020_1">
  <metadata id="CorelCorpID_0Corel-Layer"/>
  <g id="_1708447900064">
   <path class="fil0" d="M0.35 0l0.01 0c0.19,0 0.35,0.16 0.35,0.35l0 0c0,0.4 0.01,0.36 -0.35,0.36l-0.01 0c-0.19,0 -0.35,-0.17 -0.35,-0.36l0 0c0,-0.19 0.16,-0.35 0.35,-0.35z"/>
   <path class="fil1" d="M0.56 0.11c-0.03,-0.01 -0.11,-0.02 -0.14,-0.02 -0.16,0 -0.23,0.07 -0.25,0.24 -0.02,0.1 -0.04,0.19 0.03,0.25 0.04,0.03 0.07,0.04 0.13,0.04 0.03,-0.01 0.12,-0.01 0.14,-0.02 0.02,-0.02 0.05,-0.25 0.04,-0.25 -0.01,-0.01 -0.08,-0.01 -0.1,-0.01 -0.01,0.03 -0.02,0.13 -0.03,0.17 -0.07,0.01 -0.11,0.01 -0.11,-0.06 -0.01,-0.04 0.01,-0.12 0.02,-0.16 0.03,-0.15 0.15,-0.07 0.25,-0.09l0.02 -0.09z"/>
  </g>
 </g>
</svg>
