<?xml version="1.0" encoding="UTF-8"?>
<!DOCTYPE svg PUBLIC "-//W3C//DTD SVG 1.1//EN" "http://www.w3.org/Graphics/SVG/1.1/DTD/svg11.dtd">
<!-- Creator: CorelDRAW 2021 (64 Bit) -->
<svg xmlns="http://www.w3.org/2000/svg" xml:space="preserve" width="96px" height="96px" version="1.1" style="shape-rendering:geometricPrecision; text-rendering:geometricPrecision; image-rendering:optimizeQuality; fill-rule:evenodd; clip-rule:evenodd"
viewBox="0 0 1.34 1.34"
 xmlns:xlink="http://www.w3.org/1999/xlink"
 xmlns:xodm="http://www.corel.com/coreldraw/odm/2003">
 <defs>
  <style type="text/css">
   <![CDATA[
    .fil1 {fill:#0274A7}
    .fil0 {fill:white}
   ]]>
  </style>
 </defs>
 <g id="Camada_x0020_1">
  <metadata id="CorelCorpID_0Corel-Layer"/>
  <g id="_1708446229200">
   <path class="fil0" d="M0.65 0l0.04 0c0.36,0 0.65,0.3 0.65,0.66l0 0c0,0.76 0.02,0.68 -0.65,0.68l-0.04 0c-0.36,0 -0.65,-0.31 -0.65,-0.68l0 0c0,-0.36 0.29,-0.66 0.65,-0.66z"/>
   <path class="fil1" d="M1.06 0.22c-0.05,-0.03 -0.2,-0.04 -0.27,-0.04 -0.3,0 -0.42,0.11 -0.48,0.44 -0.03,0.19 -0.06,0.37 0.08,0.48 0.06,0.05 0.13,0.07 0.24,0.06 0.05,0 0.22,0 0.26,-0.03 0.03,-0.03 0.09,-0.47 0.08,-0.48 -0.03,-0.01 -0.16,-0.01 -0.19,0 -0.03,0.04 -0.05,0.25 -0.07,0.32 -0.12,0.01 -0.21,0.01 -0.21,-0.12 0,-0.07 0.03,-0.23 0.05,-0.3 0.06,-0.28 0.28,-0.14 0.48,-0.17l0.03 -0.16z"/>
  </g>
 </g>
</svg>
