<?xml version="1.0" encoding="UTF-8"?>
<!DOCTYPE svg PUBLIC "-//W3C//DTD SVG 1.1//EN" "http://www.w3.org/Graphics/SVG/1.1/DTD/svg11.dtd">
<!-- Creator: CorelDRAW 2021 (64 Bit) -->
<svg xmlns="http://www.w3.org/2000/svg" xml:space="preserve" width="144px" height="144px" version="1.1" style="shape-rendering:geometricPrecision; text-rendering:geometricPrecision; image-rendering:optimizeQuality; fill-rule:evenodd; clip-rule:evenodd"
viewBox="0 0 3.45 3.45"
 xmlns:xlink="http://www.w3.org/1999/xlink"
 xmlns:xodm="http://www.corel.com/coreldraw/odm/2003">
 <defs>
  <style type="text/css">
   <![CDATA[
    .fil1 {fill:#0274A7}
    .fil0 {fill:white}
   ]]>
  </style>
 </defs>
 <g id="Camada_x0020_1">
  <metadata id="CorelCorpID_0Corel-Layer"/>
  <g id="_1708461420944">
   <path class="fil0" d="M1.68 0l0.09 0c0.92,0 1.68,0.77 1.68,1.7l0 0c0,1.95 0.04,1.74 -1.68,1.74l-0.09 0c-0.92,0 -1.68,-0.8 -1.68,-1.74l0 0c0,-0.93 0.76,-1.7 1.68,-1.7z"/>
   <path class="fil1" d="M2.72 0.56c-0.13,-0.08 -0.51,-0.11 -0.69,-0.11 -0.76,0 -1.09,0.31 -1.23,1.14 -0.08,0.5 -0.16,0.96 0.19,1.23 0.18,0.14 0.34,0.18 0.62,0.17 0.15,0 0.58,-0.01 0.67,-0.09 0.08,-0.07 0.24,-1.2 0.22,-1.22 -0.07,-0.04 -0.4,-0.04 -0.5,-0.01 -0.08,0.11 -0.12,0.64 -0.17,0.82 -0.32,0.02 -0.53,0.04 -0.54,-0.31 0,-0.18 0.07,-0.59 0.11,-0.77 0.18,-0.73 0.73,-0.36 1.25,-0.44l0.07 -0.41z"/>
  </g>
 </g>
</svg>
