<?xml version="1.0" encoding="UTF-8"?>
<!DOCTYPE svg PUBLIC "-//W3C//DTD SVG 1.1//EN" "http://www.w3.org/Graphics/SVG/1.1/DTD/svg11.dtd">
<!-- Creator: CorelDRAW 2021 (64 Bit) -->
<svg xmlns="http://www.w3.org/2000/svg" xml:space="preserve" width="384px" height="384px" version="1.1" style="shape-rendering:geometricPrecision; text-rendering:geometricPrecision; image-rendering:optimizeQuality; fill-rule:evenodd; clip-rule:evenodd"
viewBox="0 0 31.02 31.02"
 xmlns:xlink="http://www.w3.org/1999/xlink"
 xmlns:xodm="http://www.corel.com/coreldraw/odm/2003">
 <defs>
  <style type="text/css">
   <![CDATA[
    .fil1 {fill:#0274A7}
    .fil0 {fill:white}
   ]]>
  </style>
 </defs>
 <g id="Camada_x0020_1">
  <metadata id="CorelCorpID_0Corel-Layer"/>
  <g id="_1708406207760">
   <path class="fil0" d="M15.13 0l0.76 0c8.32,0 15.13,6.89 15.13,15.32l0 0c0,17.52 0.36,15.64 -15.13,15.64l-0.76 0c-8.32,0 -15.13,-7.21 -15.13,-15.64l0 0c0,-8.43 6.81,-15.32 15.13,-15.32z"/>
   <path class="fil1" d="M24.43 5.01c-1.11,-0.72 -4.55,-0.92 -6.21,-0.93 -6.79,-0.03 -9.73,2.73 -11,10.2 -0.76,4.49 -1.44,8.68 1.7,11.12 1.58,1.22 3.08,1.59 5.57,1.53 1.36,-0.04 5.21,-0.11 6.05,-0.86 0.69,-0.59 2.13,-10.77 1.98,-10.95 -0.66,-0.39 -3.66,-0.33 -4.54,-0.08 -0.67,0.99 -1.06,5.74 -1.52,7.4 -2.86,0.18 -4.79,0.32 -4.86,-2.85 -0.04,-1.63 0.67,-5.29 1.04,-6.88 1.54,-6.57 6.54,-3.27 11.19,-4l0.6 -3.7z"/>
  </g>
 </g>
</svg>
