<?xml version="1.0" encoding="UTF-8"?>
<!DOCTYPE svg PUBLIC "-//W3C//DTD SVG 1.1//EN" "http://www.w3.org/Graphics/SVG/1.1/DTD/svg11.dtd">
<!-- Creator: CorelDRAW 2021 (64 Bit) -->
<svg xmlns="http://www.w3.org/2000/svg" xml:space="preserve" width="828px" height="1792px" version="1.1" style="shape-rendering:geometricPrecision; text-rendering:geometricPrecision; image-rendering:optimizeQuality; fill-rule:evenodd; clip-rule:evenodd"
viewBox="0 0 110.77 239.74"
 xmlns:xlink="http://www.w3.org/1999/xlink"
 xmlns:xodm="http://www.corel.com/coreldraw/odm/2003">
 <defs>
  <style type="text/css">
   <![CDATA[
    .fil0 {fill:#0274A7}
    .fil1 {fill:white}
   ]]>
  </style>
 </defs>
 <g id="Camada_x0020_1">
  <metadata id="CorelCorpID_0Corel-Layer"/>
  <rect class="fil0" width="110.77" height="239.74"/>
  <g id="_1708304942288">
   <path class="fil1" d="M54.45 82.57l1.87 0c20.45,0 37.18,16.58 37.18,36.85l0 0c0,42.14 0.9,37.62 -37.18,37.62l-1.87 0c-20.45,0 -37.18,-17.35 -37.18,-37.62l0 0c0,-20.27 16.73,-36.85 37.18,-36.85z"/>
   <path class="fil0" d="M77.32 94.62c-2.73,-1.75 -11.19,-2.21 -15.26,-2.23 -16.69,-0.07 -23.93,6.56 -27.04,24.52 -1.87,10.8 -3.54,20.9 4.18,26.75 3.89,2.95 7.57,3.82 13.69,3.68 3.34,-0.08 12.79,-0.26 14.85,-2.07 1.71,-1.41 5.24,-25.91 4.88,-26.35 -1.62,-0.92 -9.01,-0.79 -11.16,-0.18 -1.65,2.38 -2.59,13.8 -3.73,17.81 -7.04,0.43 -11.79,0.76 -11.95,-6.86 -0.09,-3.93 1.64,-12.73 2.55,-16.54 3.78,-15.81 16.08,-7.89 27.51,-9.62l1.48 -8.91z"/>
  </g>
 </g>
</svg>
