<?xml version="1.0" encoding="UTF-8"?>
<!DOCTYPE svg PUBLIC "-//W3C//DTD SVG 1.1//EN" "http://www.w3.org/Graphics/SVG/1.1/DTD/svg11.dtd">
<!-- Creator: CorelDRAW 2021 (64 Bit) -->
<svg xmlns="http://www.w3.org/2000/svg" xml:space="preserve" width="1536px" height="2048px" version="1.1" style="shape-rendering:geometricPrecision; text-rendering:geometricPrecision; image-rendering:optimizeQuality; fill-rule:evenodd; clip-rule:evenodd"
viewBox="0 0 342.07 456.1"
 xmlns:xlink="http://www.w3.org/1999/xlink"
 xmlns:xodm="http://www.corel.com/coreldraw/odm/2003">
 <defs>
  <style type="text/css">
   <![CDATA[
    .fil0 {fill:#0274A7}
    .fil1 {fill:white}
   ]]>
  </style>
 </defs>
 <g id="Camada_x0020_1">
  <metadata id="CorelCorpID_0Corel-Layer"/>
  <rect class="fil0" width="342.07" height="456.1"/>
  <g id="_1708304915456">
   <path class="fil1" d="M168.8 138.76l4.47 0c48.94,0 88.99,39.69 88.99,88.21l0 0c0,100.87 2.14,90.03 -88.99,90.03l-4.47 0c-48.94,0 -88.99,-41.51 -88.99,-90.03l0 0c0,-48.52 40.05,-88.21 88.99,-88.21z"/>
   <path class="fil0" d="M223.54 167.62c-6.55,-4.19 -26.79,-5.3 -36.53,-5.34 -39.95,-0.18 -57.27,15.71 -64.71,58.69 -4.48,25.83 -8.49,50.01 10,64.02 9.29,7.05 18.12,9.15 32.77,8.8 7.99,-0.2 30.61,-0.61 35.54,-4.94 4.08,-3.39 12.53,-62.03 11.68,-63.07 -3.89,-2.21 -21.57,-1.89 -26.71,-0.43 -3.96,5.69 -6.22,33.03 -8.95,42.61 -16.84,1.04 -28.2,1.83 -28.6,-16.4 -0.2,-9.41 3.93,-30.48 6.11,-39.6 9.06,-37.83 38.48,-18.88 65.85,-23.03l3.55 -21.31z"/>
  </g>
 </g>
</svg>
