<?xml version="1.0" encoding="UTF-8"?>
<!DOCTYPE svg PUBLIC "-//W3C//DTD SVG 1.1//EN" "http://www.w3.org/Graphics/SVG/1.1/DTD/svg11.dtd">
<!-- Creator: CorelDRAW 2021 (64 Bit) -->
<svg xmlns="http://www.w3.org/2000/svg" xml:space="preserve" width="2048px" height="2732px" version="1.1" style="shape-rendering:geometricPrecision; text-rendering:geometricPrecision; image-rendering:optimizeQuality; fill-rule:evenodd; clip-rule:evenodd"
viewBox="0 0 566.11 755.18"
 xmlns:xlink="http://www.w3.org/1999/xlink"
 xmlns:xodm="http://www.corel.com/coreldraw/odm/2003">
 <defs>
  <style type="text/css">
   <![CDATA[
    .fil0 {fill:#0274A7}
    .fil1 {fill:white}
   ]]>
  </style>
 </defs>
 <g id="Camada_x0020_1">
  <metadata id="CorelCorpID_0Corel-Layer"/>
  <rect class="fil0" width="566.11" height="755.18"/>
  <g id="_1708443402880">
   <path class="fil1" d="M279.3 227.59l7.5 0c82.22,0 149.5,66.68 149.5,148.19l0 0c0,169.44 3.6,151.24 -149.5,151.24l-7.5 0c-82.22,0 -149.5,-69.74 -149.5,-151.24l0 0c0,-81.51 67.28,-148.19 149.5,-148.19z"/>
   <path class="fil0" d="M371.25 276.07c-11,-7.03 -45,-8.9 -61.36,-8.97 -67.12,-0.3 -96.21,26.39 -108.72,98.59 -7.51,43.4 -14.25,84.01 16.81,107.55 15.61,11.84 30.44,15.37 55.04,14.78 13.44,-0.32 51.43,-1.02 59.71,-8.3 6.86,-5.69 21.06,-104.2 19.62,-105.94 -6.52,-3.71 -36.23,-3.17 -44.86,-0.73 -6.66,9.57 -10.45,55.49 -15.04,71.59 -28.3,1.75 -47.37,3.06 -48.04,-27.55 -0.35,-15.82 6.59,-51.21 10.26,-66.53 15.22,-63.55 64.65,-31.72 110.63,-38.69l5.95 -35.8z"/>
  </g>
 </g>
</svg>
