<?xml version="1.0" encoding="UTF-8"?>
<!DOCTYPE svg PUBLIC "-//W3C//DTD SVG 1.1//EN" "http://www.w3.org/Graphics/SVG/1.1/DTD/svg11.dtd">
<!-- Creator: CorelDRAW 2021 (64 Bit) -->
<svg xmlns="http://www.w3.org/2000/svg" xml:space="preserve" width="1668px" height="2224px" version="1.1" style="shape-rendering:geometricPrecision; text-rendering:geometricPrecision; image-rendering:optimizeQuality; fill-rule:evenodd; clip-rule:evenodd"
viewBox="0 0 395.82 527.76"
 xmlns:xlink="http://www.w3.org/1999/xlink"
 xmlns:xodm="http://www.corel.com/coreldraw/odm/2003">
 <defs>
  <style type="text/css">
   <![CDATA[
    .fil0 {fill:#0274A7}
    .fil1 {fill:white}
   ]]>
  </style>
 </defs>
 <g id="Camada_x0020_1">
  <metadata id="CorelCorpID_0Corel-Layer"/>
  <rect class="fil0" width="395.82" height="527.76"/>
  <g id="_1708462790720">
   <path class="fil1" d="M195.53 168.74l4.76 0c52.15,0 94.82,42.29 94.82,93.99l0 0c0,107.48 2.29,95.93 -94.82,95.93l-4.76 0c-52.15,0 -94.83,-44.23 -94.83,-95.93l0 0c0,-51.7 42.67,-93.99 94.83,-93.99z"/>
   <path class="fil0" d="M253.85 199.49c-6.97,-4.46 -28.54,-5.65 -38.92,-5.69 -42.57,-0.19 -61.03,16.73 -68.96,62.53 -4.76,27.53 -9.03,53.29 10.66,68.22 9.91,7.51 19.31,9.75 34.92,9.38 8.52,-0.21 32.62,-0.65 37.87,-5.27 4.35,-3.61 13.35,-66.09 12.45,-67.2 -4.14,-2.35 -22.98,-2.01 -28.46,-0.46 -4.22,6.07 -6.63,35.2 -9.54,45.41 -17.95,1.11 -30.05,1.94 -30.47,-17.48 -0.22,-10.03 4.18,-32.48 6.51,-42.2 9.65,-40.3 41,-20.11 70.17,-24.54l3.77 -22.7z"/>
  </g>
 </g>
</svg>
