<?xml version="1.0" encoding="UTF-8"?>
<!DOCTYPE svg PUBLIC "-//W3C//DTD SVG 1.1//EN" "http://www.w3.org/Graphics/SVG/1.1/DTD/svg11.dtd">
<!-- Creator: CorelDRAW 2021 (64 Bit) -->
<svg xmlns="http://www.w3.org/2000/svg" xml:space="preserve" width="1125px" height="2436px" version="1.1" style="shape-rendering:geometricPrecision; text-rendering:geometricPrecision; image-rendering:optimizeQuality; fill-rule:evenodd; clip-rule:evenodd"
viewBox="0 0 195.13 422.52"
 xmlns:xlink="http://www.w3.org/1999/xlink"
 xmlns:xodm="http://www.corel.com/coreldraw/odm/2003">
 <defs>
  <style type="text/css">
   <![CDATA[
    .fil0 {fill:#0274A7}
    .fil1 {fill:white}
   ]]>
  </style>
 </defs>
 <g id="Camada_x0020_1">
  <metadata id="CorelCorpID_0Corel-Layer"/>
  <rect class="fil0" width="195.13" height="422.52"/>
  <g id="_1708418007792">
   <path class="fil1" d="M95.82 141.72l3.48 0c38.12,0 69.31,30.92 69.31,68.7l0 0c0,78.56 1.67,70.12 -69.31,70.12l-3.48 0c-38.12,0 -69.3,-32.33 -69.3,-70.12l0 0c0,-37.78 31.18,-68.7 69.3,-68.7z"/>
   <path class="fil0" d="M138.46 164.19c-5.1,-3.26 -20.87,-4.12 -28.45,-4.15 -31.12,-0.14 -44.61,12.23 -50.41,45.7 -3.48,20.13 -6.6,38.95 7.79,49.87 7.24,5.49 14.12,7.12 25.53,6.85 6.22,-0.15 23.84,-0.47 27.68,-3.85 3.17,-2.64 9.76,-48.31 9.09,-49.11 -3.02,-1.72 -16.79,-1.48 -20.8,-0.34 -3.08,4.43 -4.84,25.72 -6.97,33.19 -13.12,0.81 -21.96,1.42 -22.27,-12.78 -0.16,-7.33 3.06,-23.74 4.76,-30.84 7.05,-29.46 29.97,-14.7 51.28,-17.94l2.77 -16.6z"/>
  </g>
 </g>
</svg>
