<?xml version="1.0" encoding="UTF-8"?>
<!DOCTYPE svg PUBLIC "-//W3C//DTD SVG 1.1//EN" "http://www.w3.org/Graphics/SVG/1.1/DTD/svg11.dtd">
<!-- Creator: CorelDRAW 2021 (64 Bit) -->
<svg xmlns="http://www.w3.org/2000/svg" xml:space="preserve" width="750px" height="1334px" version="1.1" style="shape-rendering:geometricPrecision; text-rendering:geometricPrecision; image-rendering:optimizeQuality; fill-rule:evenodd; clip-rule:evenodd"
viewBox="0 0 92.05 163.72"
 xmlns:xlink="http://www.w3.org/1999/xlink"
 xmlns:xodm="http://www.corel.com/coreldraw/odm/2003">
 <defs>
  <style type="text/css">
   <![CDATA[
    .fil0 {fill:#0274A7}
    .fil1 {fill:white}
   ]]>
  </style>
 </defs>
 <g id="Camada_x0020_1">
  <metadata id="CorelCorpID_0Corel-Layer"/>
  <g id="_1708299616960">
   <rect class="fil0" width="92.05" height="163.72"/>
   <g>
    <path class="fil1" d="M45.25 50.12l1.55 0c16.99,0 30.89,14.11 30.89,31.36l0 0c0,35.85 0.75,32 -30.89,32l-1.55 0c-16.99,0 -30.9,-14.76 -30.9,-32l0 0c0,-17.25 13.9,-31.36 30.9,-31.36z"/>
    <path class="fil0" d="M64.25 60.38c-2.27,-1.49 -9.3,-1.88 -12.68,-1.9 -13.87,-0.06 -19.88,5.59 -22.47,20.86 -1.55,9.19 -2.94,17.78 3.47,22.76 3.23,2.5 6.3,3.25 11.38,3.12 2.78,-0.06 10.63,-0.21 12.34,-1.75 1.42,-1.21 4.35,-22.05 4.06,-22.42 -1.35,-0.78 -7.49,-0.67 -9.28,-0.15 -1.37,2.02 -2.16,11.74 -3.1,15.15 -5.85,0.37 -9.8,0.64 -9.93,-5.83 -0.08,-3.35 1.36,-10.84 2.12,-14.08 3.14,-13.44 13.36,-6.71 22.86,-8.18l1.23 -7.58z"/>
   </g>
  </g>
 </g>
</svg>
