<?xml version="1.0" encoding="UTF-8"?>
<!DOCTYPE svg PUBLIC "-//W3C//DTD SVG 1.1//EN" "http://www.w3.org/Graphics/SVG/1.1/DTD/svg11.dtd">
<!-- Creator: CorelDRAW 2021 (64 Bit) -->
<svg xmlns="http://www.w3.org/2000/svg" xml:space="preserve" width="640px" height="1136px" version="1.1" style="shape-rendering:geometricPrecision; text-rendering:geometricPrecision; image-rendering:optimizeQuality; fill-rule:evenodd; clip-rule:evenodd"
viewBox="0 0 68.25 121.15"
 xmlns:xlink="http://www.w3.org/1999/xlink"
 xmlns:xodm="http://www.corel.com/coreldraw/odm/2003">
 <defs>
  <style type="text/css">
   <![CDATA[
    .fil0 {fill:#0274A7}
    .fil1 {fill:white}
   ]]>
  </style>
 </defs>
 <g id="Camada_x0020_1">
  <metadata id="CorelCorpID_0Corel-Layer"/>
  <g id="_1708470895792">
   <rect class="fil0" width="68.25" height="121.15"/>
   <g>
    <path class="fil1" d="M33.55 37.09l1.15 0c12.6,0 22.91,10.44 22.91,23.2l0 0c0,26.53 0.55,23.68 -22.91,23.68l-1.15 0c-12.6,0 -22.91,-10.92 -22.91,-23.68l0 0c0,-12.76 10.31,-23.2 22.91,-23.2z"/>
    <path class="fil0" d="M47.64 44.68c-1.68,-1.1 -6.89,-1.39 -9.4,-1.4 -10.29,-0.05 -14.74,4.13 -16.66,15.43 -1.15,6.8 -2.18,13.16 2.57,16.84 2.4,1.86 4.67,2.41 8.44,2.32 2.06,-0.05 7.88,-0.16 9.15,-1.3 1.05,-0.89 3.23,-16.32 3.01,-16.59 -1,-0.58 -5.55,-0.5 -6.88,-0.11 -1.02,1.49 -1.6,8.68 -2.3,11.2 -4.34,0.28 -7.26,0.48 -7.37,-4.31 -0.05,-2.48 1.02,-8.02 1.58,-10.42 2.33,-9.95 9.9,-4.96 16.95,-6.05l0.91 -5.61z"/>
   </g>
  </g>
 </g>
</svg>
