<?xml version="1.0" encoding="UTF-8"?>
<!DOCTYPE svg PUBLIC "-//W3C//DTD SVG 1.1//EN" "http://www.w3.org/Graphics/SVG/1.1/DTD/svg11.dtd">
<!-- Creator: CorelDRAW 2021 (64 Bit) -->
<svg xmlns="http://www.w3.org/2000/svg" xml:space="preserve" width="1242px" height="2688px" version="1.1" style="shape-rendering:geometricPrecision; text-rendering:geometricPrecision; image-rendering:optimizeQuality; fill-rule:evenodd; clip-rule:evenodd"
viewBox="0 0 233.61 505.6"
 xmlns:xlink="http://www.w3.org/1999/xlink"
 xmlns:xodm="http://www.corel.com/coreldraw/odm/2003">
 <defs>
  <style type="text/css">
   <![CDATA[
    .fil0 {fill:#0274A7}
    .fil1 {fill:white}
   ]]>
  </style>
 </defs>
 <g id="Camada_x0020_1">
  <metadata id="CorelCorpID_0Corel-Layer"/>
  <rect class="fil0" width="233.61" height="505.6"/>
  <g id="_1708455060272">
   <path class="fil1" d="M114.92 177.39l3.77 0c41.34,0 75.16,33.52 75.16,74.5l0 0c0,85.19 1.81,76.04 -75.16,76.04l-3.77 0c-41.34,0 -75.16,-35.06 -75.16,-76.04l0 0c0,-40.98 33.82,-74.5 75.16,-74.5z"/>
   <path class="fil0" d="M161.15 201.76c-5.53,-3.54 -22.62,-4.48 -30.85,-4.51 -33.75,-0.15 -48.37,13.27 -54.66,49.57 -3.78,21.82 -7.16,42.24 8.45,54.07 7.85,5.95 15.3,7.73 27.67,7.43 6.76,-0.16 25.86,-0.51 30.02,-4.17 3.45,-2.86 10.59,-52.39 9.87,-53.26 -3.28,-1.87 -18.22,-1.6 -22.56,-0.37 -3.34,4.81 -5.25,27.9 -7.56,35.99 -14.22,0.88 -23.82,1.54 -24.15,-13.85 -0.18,-7.95 3.31,-25.75 5.16,-33.45 7.65,-31.95 32.5,-15.94 55.62,-19.45l2.99 -18z"/>
  </g>
 </g>
</svg>
